<svg width="228" height="116" viewBox="0 0 228 116" fill="none" xmlns="http://www.w3.org/2000/svg">
<path d="M164.174 9.87586L144.585 47.0892C144.167 47.885 142.952 47.885 142.535 47.0892L122.946 9.87586C122.756 9.4969 122.376 9.26953 121.959 9.26953H112.468C111.822 9.26953 111.405 9.95165 111.709 10.5201L142.573 68.1969C142.99 68.9927 144.129 68.9927 144.585 68.1969L175.449 10.5201C175.753 9.95165 175.335 9.26953 174.69 9.26953H165.199C164.743 9.26953 164.364 9.4969 164.174 9.87586Z" fill="#001291"/>
<path d="M175.296 59.5585L194.886 22.3452C195.303 21.5494 196.518 21.5494 196.936 22.3452L216.525 59.5585C216.714 59.9375 217.094 60.1649 217.512 60.1649H227.003C227.648 60.1649 228.066 59.4827 227.762 58.9143L196.898 1.23748C196.48 0.441674 195.341 0.441674 194.886 1.23748L164.021 58.9143C163.718 59.4827 164.135 60.1649 164.781 60.1649H174.271C174.689 60.127 175.107 59.8996 175.296 59.5585Z" fill="#001291"/>
<path d="M41.3989 36.7047C45.499 34.6583 48.0425 30.2245 48.0425 24.8055C48.0425 15.5211 40.7915 9.23047 30.5793 9.23047H1.23363C0.588251 9.23047 0.0947266 9.72311 0.0947266 10.3673V67.6273C0.0947266 68.2715 0.588251 68.7642 1.23363 68.7642H29.3265C43.373 68.7642 50.7759 62.7388 50.7759 50.9154C50.7759 39.3952 41.3989 36.7047 41.3989 36.7047ZM11.1041 17.8706H28.5293C34.9451 17.8706 38.21 20.5991 38.21 25.6771C38.21 30.7551 34.9451 33.4835 28.5293 33.4835H11.1041C10.4967 33.4835 9.96521 32.9909 9.96521 32.3467V19.0075C9.96521 18.3633 10.4587 17.8706 11.1041 17.8706ZM28.7571 60.124H11.1041C10.4587 60.124 9.96521 59.6314 9.96521 58.9872V43.1848C9.96521 42.5784 10.4587 42.0479 11.1041 42.0479H28.7571C37.185 42.0479 40.9433 44.4353 40.9433 51.067C40.9054 57.7745 37.2609 60.124 28.7571 60.124Z" fill="#001291"/>
<path d="M101.646 36.7047C105.746 34.6583 108.29 30.2245 108.29 24.8055C108.29 15.5211 101.039 9.23047 90.8268 9.23047H61.4431C60.7977 9.23047 60.3042 9.72311 60.3042 10.3673V67.6273C60.3042 68.2715 60.7977 68.7642 61.4431 68.7642H89.536C103.582 68.7642 110.985 62.7388 110.985 50.9154C111.023 39.3952 101.646 36.7047 101.646 36.7047ZM71.3515 17.8706H88.7767C95.1926 17.8706 98.4574 20.5991 98.4574 25.6771C98.4574 30.7551 95.1926 33.4835 88.7767 33.4835H71.3515C70.7062 33.4835 70.2126 32.9909 70.2126 32.3467V19.0075C70.2126 18.3633 70.7062 17.8706 71.3515 17.8706ZM88.9666 60.124H71.3136C70.7062 60.124 70.1747 59.6314 70.1747 58.9872V43.1848C70.1747 42.5784 70.6682 42.0479 71.3136 42.0479H88.9666C97.3944 42.0479 101.153 44.4353 101.153 51.067C101.153 57.7745 97.4704 60.124 88.9666 60.124Z" fill="#001291"/>
<path d="M136.544 108.328C131.847 108.328 128.105 106.647 125.28 103.822L126.845 101.798C129.213 104.204 132.611 105.884 136.506 105.884C140.859 105.884 143.646 103.936 143.646 100.805C143.646 97.8652 142.195 96.3379 136.2 94.4669C130.129 92.5577 127.036 90.9158 127.036 86.2574C127.036 82.21 130.664 79.0026 135.819 79.0026C140.133 79.0026 143.264 80.6826 145.861 83.0118L144.486 85.1501C141.928 82.8591 139.255 81.4463 135.819 81.4463C132 81.4463 129.709 83.5464 129.709 86.0665C129.709 89.2358 131.618 90.3431 137.537 92.2141C143.417 94.0851 146.319 96.0324 146.319 100.653C146.319 105.311 142.195 108.328 136.544 108.328ZM160.73 105.922C164.09 105.922 166.763 103.516 166.763 97.7507C166.763 92.2141 164.014 89.5412 160.654 89.5412C158.172 89.5412 156.415 90.8013 154.392 92.825V102.676C156.453 104.776 158.324 105.922 160.73 105.922ZM154.392 115.239L151.757 115.621V87.7084H154.124L154.392 90.534C155.995 88.7776 158.095 87.2884 161.112 87.2884C165.732 87.2884 169.398 90.6867 169.398 97.7125C169.398 104.738 165.694 108.137 161.036 108.137C158.286 108.137 156.186 106.877 154.392 105.044V115.239ZM179.058 105.96C181.884 105.96 184.366 104.776 186.428 102.791V96.5288C177.569 98.0562 175.393 100.156 175.393 102.753C175.393 104.853 176.767 105.96 179.058 105.96ZM178.486 108.137C174.896 108.137 172.796 106.189 172.796 103.058C172.796 99.0871 176.195 96.2234 186.428 94.6578V93.6269C186.428 90.8777 184.939 89.503 182.304 89.503C179.173 89.503 176.997 90.7631 174.858 92.6723L173.369 91.0304C175.775 88.8157 178.409 87.2884 182.495 87.2884C186.962 87.2884 189.024 89.694 189.024 93.7032V107.793H186.695L186.428 104.929C184.099 106.991 181.502 108.137 178.486 108.137ZM197.535 107.793H194.9V87.7084H197.267L197.535 91.6413H197.611C199.138 89.1976 201.582 87.2884 205.515 87.2884H205.782L206.011 89.7321C205.935 89.694 205.133 89.694 205.057 89.694C201.735 89.694 199.062 91.5268 197.535 94.696V107.793ZM212.562 107.793H209.927V79.7281L212.562 79.3462V98.2853L222.146 87.7084H225.239L218.671 94.7724L225.964 107.564L223.368 108.022L216.915 96.7579L212.562 101.454V107.793Z" fill="#001291"/>
</svg>
